<?xml version="1.0" encoding="utf-8"?>
<!-- Author: ar888 -->
<!DOCTYPE svg PUBLIC "-//W3C//DTD SVG 1.1//EN" "http://www.w3.org/Graphics/SVG/1.1/DTD/svg11.dtd">
<svg version="1.1" id="k8vavoom_logo" xmlns="http://www.w3.org/2000/svg" xmlns:xlink="http://www.w3.org/1999/xlink" x="0px" y="0px"
	 width="763.768px" height="217.377px" viewBox="0 0 763.768 217.377" enable-background="new 0 0 763.768 217.377"
	 xml:space="preserve">
<g>
	<linearGradient id="SVGID_1_" gradientUnits="userSpaceOnUse" x1="494.7524" y1="64.2397" x2="494.7524" y2="146.6622">
		<stop  offset="0" style="stop-color:#FE1A0E"/>
		<stop  offset="1" style="stop-color:#CB000A"/>
	</linearGradient>
	<polygon fill="url(#SVGID_1_)" points="516.933,63.116 516.933,102.186 514.322,107.416 494.751,146.546 475.193,107.416
		472.572,102.186 472.572,63.116 482.912,63.116 482.912,99.746 494.751,123.425 506.593,99.746 506.593,63.116 	"/>
	<linearGradient id="SVGID_2_" gradientUnits="userSpaceOnUse" x1="381.3672" y1="64.2397" x2="381.3672" y2="146.6622">
		<stop  offset="0" style="stop-color:#FE1A0E"/>
		<stop  offset="1" style="stop-color:#CB000A"/>
	</linearGradient>
	<polygon fill="url(#SVGID_2_)" points="403.542,63.116 403.542,102.186 400.933,107.416 381.362,146.546 361.803,107.416
		359.192,102.186 359.192,63.116 369.532,63.116 369.532,99.746 381.362,123.425 393.203,99.746 393.203,63.116 	"/>
	<linearGradient id="SVGID_3_" gradientUnits="userSpaceOnUse" x1="438.062" y1="63.8828" x2="438.062" y2="144.6494">
		<stop  offset="0" style="stop-color:#FE1A0E"/>
		<stop  offset="1" style="stop-color:#CB000A"/>
	</linearGradient>
	<path fill="url(#SVGID_3_)" d="M454.763,63.116h-33.4l-5.48,10.96v50.78l10.34,20.68v-49.4h23.68v49.4l10.34-20.68v-50.78
		L454.763,63.116z M426.222,76.516l1.529-3.06h20.621l1.529,3.06v9.28h-23.68V76.516z"/>
	<linearGradient id="SVGID_4_" gradientUnits="userSpaceOnUse" x1="664.8325" y1="64.2354" x2="664.8325" y2="145.6511">
		<stop  offset="0" style="stop-color:#FE1A0E"/>
		<stop  offset="1" style="stop-color:#CB000A"/>
	</linearGradient>
	<polygon fill="url(#SVGID_4_)" points="687.013,63.126 687.013,124.866 676.673,145.536 676.673,85.846 674.113,90.966
		664.832,109.536 655.542,90.966 652.992,85.866 652.992,145.536 642.652,124.866 642.652,63.126 653.183,63.126 664.832,86.416
		676.482,63.126 	"/>
	<linearGradient id="SVGID_5_" gradientUnits="userSpaceOnUse" x1="551.4478" y1="63.8931" x2="551.4478" y2="147.0722">
		<stop  offset="0" style="stop-color:#FE1A0E"/>
		<stop  offset="1" style="stop-color:#CB000A"/>
	</linearGradient>
	<path fill="url(#SVGID_5_)" d="M529.273,63.116v39.06l2.609,5.23l19.57,39.13l19.561-39.13l2.609-5.23v-39.06H529.273z
		 M563.283,99.736l-11.83,23.68l-11.84-23.68v-26.28h23.67V99.736z"/>
	<linearGradient id="SVGID_6_" gradientUnits="userSpaceOnUse" x1="608.1421" y1="63.8931" x2="608.1421" y2="147.0722">
		<stop  offset="0" style="stop-color:#FE1A0E"/>
		<stop  offset="1" style="stop-color:#CB000A"/>
	</linearGradient>
	<path fill="url(#SVGID_6_)" d="M585.962,63.116v39.06l2.619,5.23l19.561,39.13l19.561-39.13l2.609-5.23l0.01-39.06H585.962z
		 M619.982,99.736l-11.84,23.68l-11.84-23.68v-26.28h23.68V99.736z"/>
	<g opacity="0.5">
		<linearGradient id="SVGID_7_" gradientUnits="userSpaceOnUse" x1="364.3623" y1="63.8896" x2="364.3623" y2="112.7944">
			<stop  offset="0" style="stop-color:#FFFFFF"/>
			<stop  offset="1" style="stop-color:#FFFFFF;stop-opacity:0.1"/>
		</linearGradient>
		<polygon fill="url(#SVGID_7_)" points="369.532,63.116 369.532,91.946 361.803,107.416 359.192,102.186 359.192,63.116 		"/>
		<linearGradient id="SVGID_8_" gradientUnits="userSpaceOnUse" x1="398.3726" y1="63.8896" x2="398.3726" y2="112.7944">
			<stop  offset="0" style="stop-color:#FFFFFF"/>
			<stop  offset="1" style="stop-color:#FFFFFF;stop-opacity:0.1"/>
		</linearGradient>
		<polygon fill="url(#SVGID_8_)" points="403.542,63.116 403.542,102.186 400.933,107.416 393.203,91.966 393.203,63.116 		"/>
		<linearGradient id="SVGID_9_" gradientUnits="userSpaceOnUse" x1="438.062" y1="63.875" x2="438.062" y2="112.508">
			<stop  offset="0" style="stop-color:#FFFFFF"/>
			<stop  offset="1" style="stop-color:#FFFFFF;stop-opacity:0.1"/>
		</linearGradient>
		<path fill="url(#SVGID_9_)" d="M454.763,63.116h-33.4l-5.48,10.96v38.57l10.84-21.68h22.68l10.84,21.7v-38.59L454.763,63.116z
			 M449.902,85.796h-23.68v-9.28l1.529-3.06h20.621l1.529,3.06V85.796z"/>
		<linearGradient id="SVGID_10_" gradientUnits="userSpaceOnUse" x1="477.7417" y1="63.8896" x2="477.7417" y2="112.7944">
			<stop  offset="0" style="stop-color:#FFFFFF"/>
			<stop  offset="1" style="stop-color:#FFFFFF;stop-opacity:0.1"/>
		</linearGradient>
		<polygon fill="url(#SVGID_10_)" points="482.912,63.116 482.912,91.966 475.193,107.416 472.572,102.186 472.572,63.116 		"/>
		<linearGradient id="SVGID_11_" gradientUnits="userSpaceOnUse" x1="511.7632" y1="63.8896" x2="511.7632" y2="112.7944">
			<stop  offset="0" style="stop-color:#FFFFFF"/>
			<stop  offset="1" style="stop-color:#FFFFFF;stop-opacity:0.1"/>
		</linearGradient>
		<polygon fill="url(#SVGID_11_)" points="516.933,63.116 516.933,102.186 514.322,107.416 506.593,91.966 506.593,63.116 		"/>
		<linearGradient id="SVGID_12_" gradientUnits="userSpaceOnUse" x1="551.4478" y1="63.8896" x2="551.4478" y2="112.7836">
			<stop  offset="0" style="stop-color:#FFFFFF"/>
			<stop  offset="1" style="stop-color:#FFFFFF;stop-opacity:0.1"/>
		</linearGradient>
		<polygon fill="url(#SVGID_12_)" points="573.623,63.116 573.623,102.176 571.013,107.406 563.283,91.966 563.283,73.456
			539.613,73.456 539.613,91.946 531.882,107.406 529.273,102.176 529.273,63.116 		"/>
		<linearGradient id="SVGID_13_" gradientUnits="userSpaceOnUse" x1="608.1421" y1="63.8896" x2="608.1421" y2="112.7836">
			<stop  offset="0" style="stop-color:#FFFFFF"/>
			<stop  offset="1" style="stop-color:#FFFFFF;stop-opacity:0.1"/>
		</linearGradient>
		<polygon fill="url(#SVGID_13_)" points="630.322,63.116 630.312,102.176 627.703,107.406 619.982,91.986 619.982,73.456
			596.302,73.456 596.302,91.966 588.582,107.406 585.962,102.176 585.962,63.116 		"/>
		<linearGradient id="SVGID_14_" gradientUnits="userSpaceOnUse" x1="664.8325" y1="63.8848" x2="664.8325" y2="112.4886">
			<stop  offset="0" style="stop-color:#FFFFFF"/>
			<stop  offset="1" style="stop-color:#FFFFFF;stop-opacity:0.1"/>
		</linearGradient>
		<polygon fill="url(#SVGID_14_)" points="687.013,63.126 687.013,112.646 676.673,91.966 676.673,85.846 674.113,90.966
			655.542,90.966 652.992,85.866 652.992,91.966 642.652,112.646 642.652,63.126 653.183,63.126 664.832,86.416 676.482,63.126
			"/>
	</g>
	<g>
		<g>
			<linearGradient id="SVGID_15_" gradientUnits="userSpaceOnUse" x1="301.9976" y1="63.1157" x2="301.9976" y2="146.914">
				<stop  offset="0" style="stop-color:#FECC2E"/>
				<stop  offset="1" style="stop-color:#B28F20"/>
			</linearGradient>
			<path fill="url(#SVGID_15_)" d="M324.173,63.116h-44.351v16.39l5.73,11.46l-5.67,11.34l2.55,5.11l19.56,39.12l19.57-39.13
				l2.55-5.1l-5.66-11.34l5.721-11.46V63.116z M290.163,73.456h23.669v3.61l-4.359,8.73h-14.95l-4.36-8.73V73.456z M302.002,123.425
				l-10.56-21.12l3.08-6.17h14.95l3.08,6.17L302.002,123.425z"/>
			<linearGradient id="SVGID_16_" gradientUnits="userSpaceOnUse" x1="301.9976" y1="63.7168" x2="301.9976" y2="108.494">
				<stop  offset="0" style="stop-color:#FFFFFF"/>
				<stop  offset="1" style="stop-color:#FFFFFF;stop-opacity:0.1"/>
			</linearGradient>
			<path opacity="0.5" fill="url(#SVGID_16_)" d="M324.173,63.116h-44.351v16.39l5.73,11.46l-5.67,11.34l2.55,5.11l8.23-16.45
				h22.669l8.23,16.44l2.55-5.1l-5.66-11.34l5.721-11.46V63.116z M313.832,77.066l-4.359,8.73h-14.95l-4.36-8.73v-3.61h23.669
				V77.066z"/>
			<linearGradient id="SVGID_17_" gradientUnits="userSpaceOnUse" x1="301.998" y1="63.0137" x2="301.998" y2="146.4615">
				<stop  offset="0" style="stop-color:#D8AD27"/>
				<stop  offset="1" style="stop-color:#8C7019"/>
			</linearGradient>
			<path fill="url(#SVGID_17_)" d="M313.783,101.414l-2.83-5.67l-0.55-1.11h-16.811l-0.55,1.11l-2.84,5.67l-0.44,0.89l0.44,0.9
				l10,20l1.79,3.568l1.79-3.568l10-20.011l0.45-0.89L313.783,101.414z M301.993,122.304l-10-20l2.84-5.67h14.33l2.83,5.67
				L301.993,122.304z M313.333,71.954l-22.67,0.01h-2v5.46l0.21,0.42l4.17,8.35l0.55,1.101h16.811l0.55-1.101l4.17-8.35l0.21-0.42
				v-5.47H313.333z M313.333,76.954l-4.17,8.34h-14.33l-4.17-8.34v-3h22.67V76.954z M313.333,71.954l-22.67,0.01h-2v5.46l0.21,0.42
				l4.17,8.35l0.55,1.101h16.811l0.55-1.101l4.17-8.35l0.21-0.42v-5.47H313.333z M313.333,76.954l-4.17,8.34h-14.33l-4.17-8.34v-3
				h22.67V76.954z M313.783,101.414l-2.83-5.67l-0.55-1.11h-16.811l-0.55,1.11l-2.84,5.67l-0.44,0.89l0.44,0.9l10,20l1.79,3.568
				l1.79-3.568l10-20.011l0.45-0.89L313.783,101.414z M301.993,122.304l-10-20l2.84-5.67h14.33l2.83,5.67L301.993,122.304z
				 M313.783,101.414l-2.83-5.67l-0.55-1.11h-16.811l-0.55,1.11l-2.84,5.67l-0.44,0.89l0.44,0.9l10,20l1.79,3.568l1.79-3.568
				l10-20.011l0.45-0.89L313.783,101.414z M301.993,122.304l-10-20l2.84-5.67h14.33l2.83,5.67L301.993,122.304z M313.333,71.954
				l-22.67,0.01h-2v5.46l0.21,0.42l4.17,8.35l0.55,1.101h16.811l0.55-1.101l4.17-8.35l0.21-0.42v-5.47H313.333z M313.333,76.954
				l-4.17,8.34h-14.33l-4.17-8.34v-3h22.67V76.954z M313.333,71.954l-22.67,0.01h-2v5.46l0.21,0.42l4.17,8.35l0.55,1.101h16.811
				l0.55-1.101l4.17-8.35l0.21-0.42v-5.47H313.333z M313.333,76.954l-4.17,8.34h-14.33l-4.17-8.34v-3h22.67V76.954z M310.953,95.744
				l-0.55-1.11h-16.811l-0.55,1.11l-2.84,5.67l-0.44,0.89l0.44,0.9l10,20l1.79,3.568l1.79-3.568l10-20.011l0.45-0.89l-0.45-0.89
				L310.953,95.744z M301.993,122.304l-10-20l2.84-5.67h14.33l2.83,5.67L301.993,122.304z M324.673,62.624h-45.35v17.01l5.67,11.33
				l-5.67,11.34l22.67,45.36l22.68-45.36l-5.67-11.34l5.67-11.33V62.624z M322.673,79.153l-5.46,10.92l-0.439,0.891l0.439,0.899
				l5.221,10.44l-20.44,40.879l-20.44-40.879l5.221-10.44l0.45-0.899l-0.45-0.891l-5.45-10.92V64.624h41.35V79.153z M293.043,86.193
				l0.55,1.101h16.811l0.55-1.101l4.17-8.35l0.21-0.42v-5.47h-2l-22.67,0.01h-2v5.46l0.21,0.42L293.043,86.193z M290.663,73.954
				h22.67v3l-4.17,8.34h-14.33l-4.17-8.34V73.954z M310.953,95.744l-0.55-1.11h-16.811l-0.55,1.11l-2.84,5.67l-0.44,0.89l0.44,0.9
				l10,20l1.79,3.568l1.79-3.568l10-20.011l0.45-0.89l-0.45-0.89L310.953,95.744z M301.993,122.304l-10-20l2.84-5.67h14.33
				l2.83,5.67L301.993,122.304z"/>
		</g>
		<g>
			<linearGradient id="SVGID_18_" gradientUnits="userSpaceOnUse" x1="245.3027" y1="64.4727" x2="245.3027" y2="145.3504">
				<stop  offset="0" style="stop-color:#FECC2E"/>
				<stop  offset="1" style="stop-color:#B28F20"/>
			</linearGradient>
			<polygon fill="url(#SVGID_18_)" points="267.482,79.516 261.752,90.966 267.482,102.426 267.482,124.866 257.143,145.546
				257.143,104.866 252.782,96.136 233.462,96.136 233.462,145.546 223.123,124.866 223.123,63.126 233.462,63.126 233.462,85.796
				252.782,85.796 257.143,77.076 257.143,63.126 267.482,63.126 			"/>
			<linearGradient id="SVGID_19_" gradientUnits="userSpaceOnUse" x1="245.3027" y1="63.561" x2="245.3027" y2="115.5312">
				<stop  offset="0" style="stop-color:#FFFFFF"/>
				<stop  offset="1" style="stop-color:#FFFFFF;stop-opacity:0.1"/>
			</linearGradient>
			<polygon opacity="0.5" fill="url(#SVGID_19_)" points="267.482,79.516 261.752,90.966 267.482,102.426 267.482,112.646
				256.643,90.966 233.962,90.966 223.123,112.646 223.123,63.126 233.462,63.126 233.462,85.796 252.782,85.796 257.143,77.076
				257.143,63.126 267.482,63.126 			"/>
			<linearGradient id="SVGID_20_" gradientUnits="userSpaceOnUse" x1="245.3032" y1="62.5137" x2="245.3032" y2="147.3461">
				<stop  offset="0" style="stop-color:#D8AD27"/>
				<stop  offset="1" style="stop-color:#8C7019"/>
			</linearGradient>
			<path fill="url(#SVGID_20_)" d="M267.983,62.624h-11.34v14.33l-4.17,8.34h-18.511v-22.67h-11.34v62.36l11.34,22.68v-51.03h18.511
				l4.17,8.35v42.68l11.34-22.68v-22.68l-5.67-11.34l5.67-11.33V62.624z M265.983,79.153l-5.46,10.92l-0.45,0.891l0.45,0.899
				l5.46,10.91v21.74l-7.34,14.67v-34.669l-0.21-0.43l-4.171-8.34l-0.56-1.11h-21.74v44.549l-7.34-14.67V64.624h7.34v22.67h21.74
				l0.56-1.101l4.171-8.35l0.21-0.42v-12.8h7.34V79.153z"/>
		</g>
	</g>
	<linearGradient id="SVGID_21_" gradientUnits="userSpaceOnUse" x1="455.0679" y1="46.2236" x2="455.0679" y2="55.7679">
		<stop  offset="0" style="stop-color:#FE1A0E"/>
		<stop  offset="1" style="stop-color:#CB000A"/>
	</linearGradient>
	<polygon fill="url(#SVGID_21_)" points="719.402,46.106 698.722,56.446 211.413,56.446 201.072,51.276 190.732,46.106 	"/>
	<linearGradient id="SVGID_22_" gradientUnits="userSpaceOnUse" x1="455.0679" y1="46.3794" x2="455.0679" y2="56.7192">
		<stop  offset="0" style="stop-color:#FFFFFF"/>
		<stop  offset="1" style="stop-color:#FFFFFF;stop-opacity:0.1"/>
	</linearGradient>
	<polygon opacity="0.5" fill="url(#SVGID_22_)" points="719.402,46.106 709.062,51.276 201.072,51.276 190.732,46.106 	"/>
	<linearGradient id="SVGID_23_" gradientUnits="userSpaceOnUse" x1="455.0679" y1="47.0728" x2="455.0679" y2="56.745">
		<stop  offset="0" style="stop-color:#FE000D"/>
		<stop  offset="1" style="stop-color:#980008"/>
	</linearGradient>
	<path fill="url(#SVGID_23_)" d="M713.052,47.61l-14.678,7.339H211.76l-14.677-7.339H713.052 M721.523,45.61H188.611l22.677,11.339
		h487.559L721.523,45.61L721.523,45.61z"/>
	<g>
		<linearGradient id="SVGID_24_" gradientUnits="userSpaceOnUse" x1="64.1011" y1="65.6665" x2="152.4359" y2="154.0013">
			<stop  offset="0" style="stop-color:#B28F20"/>
			<stop  offset="1" style="stop-color:#8C7019"/>
		</linearGradient>
		<circle fill="url(#SVGID_24_)" cx="107.873" cy="109.438" r="63.829"/>
		<radialGradient id="SVGID_25_" cx="107.5645" cy="109.6685" r="61.4638" gradientUnits="userSpaceOnUse">
			<stop  offset="0" style="stop-color:#FECC2E"/>
			<stop  offset="1" style="stop-color:#B28F20"/>
		</radialGradient>
		<circle fill="url(#SVGID_25_)" cx="107.874" cy="109.439" r="60.994"/>
		<g>
			<radialGradient id="SVGID_26_" cx="108.1475" cy="110.168" r="60.2936" gradientUnits="userSpaceOnUse">
				<stop  offset="0" style="stop-color:#997B1C"/>
				<stop  offset="1" style="stop-color:#8C7019"/>
			</radialGradient>
			<path fill="url(#SVGID_26_)" d="M117.9,49.248l-10.032,60.189L97.836,49.248c3.261-0.54,6.611-0.821,10.032-0.821
				S114.64,48.708,117.9,49.248z"/>
			<radialGradient id="SVGID_27_" cx="108.1475" cy="110.1685" r="60.2951" gradientUnits="userSpaceOnUse">
				<stop  offset="0" style="stop-color:#997B1C"/>
				<stop  offset="1" style="stop-color:#8C7019"/>
			</radialGradient>
			<path fill="url(#SVGID_27_)" d="M47.679,99.404c-0.539,3.261-0.82,6.612-0.82,10.033c0,3.421,0.281,6.773,0.82,10.033
				l60.189-10.033L47.679,99.404z M50.719,130.845c2.382,6.361,5.803,12.225,10.044,17.375l47.105-38.783L50.719,130.845z
				 M60.763,70.665c-4.241,5.151-7.662,11.003-10.044,17.365l57.149,21.407L60.763,70.665z M69.086,156.554
				c5.152,4.24,11.014,7.652,17.375,10.043l21.407-57.15L69.086,156.554z M86.461,52.289c-6.361,2.38-12.213,5.802-17.365,10.043
				l38.772,47.105L86.461,52.289z M107.868,109.447l-10.032,60.191c3.261,0.541,6.611,0.82,10.032,0.82s6.771-0.279,10.032-0.82
				L107.868,109.447z M107.868,109.447l21.417,57.14c6.361-2.381,12.225-5.803,17.365-10.043L107.868,109.447z M107.868,109.438
				l47.105,38.783c4.241-5.15,7.662-11.002,10.044-17.365L107.868,109.438z M168.067,99.404l-60.199,10.033l60.199,10.033
				c0.541-3.26,0.82-6.611,0.82-10.033C168.888,106.017,168.608,102.665,168.067,99.404z"/>
			<radialGradient id="SVGID_28_" cx="108.1475" cy="110.168" r="60.2951" gradientUnits="userSpaceOnUse">
				<stop  offset="0" style="stop-color:#997B1C"/>
				<stop  offset="1" style="stop-color:#8C7019"/>
			</radialGradient>
			<path fill="url(#SVGID_28_)" d="M165.018,88.021l-57.149,21.417l47.115-38.782C159.215,75.806,162.636,81.658,165.018,88.021z"/>
			<radialGradient id="SVGID_29_" cx="108.1475" cy="110.1675" r="60.2953" gradientUnits="userSpaceOnUse">
				<stop  offset="0" style="stop-color:#997B1C"/>
				<stop  offset="1" style="stop-color:#8C7019"/>
			</radialGradient>
			<path fill="url(#SVGID_29_)" d="M146.65,62.332l-38.782,47.105l21.407-57.148C135.646,54.669,141.498,58.091,146.65,62.332z"/>
		</g>
		<g>
			<radialGradient id="SVGID_30_" cx="108.5645" cy="109.001" r="60.4042" gradientUnits="userSpaceOnUse">
				<stop  offset="0" style="stop-color:#D8AD27"/>
				<stop  offset="1" style="stop-color:#8C7019"/>
			</radialGradient>
			<path fill="url(#SVGID_30_)" d="M115.442,48.897l-7.563,60.54l-7.563-60.54c2.48-0.311,5.002-0.471,7.563-0.471
				C110.44,48.427,112.961,48.587,115.442,48.897z"/>
			<radialGradient id="SVGID_31_" cx="108.5645" cy="109.0015" r="60.399" gradientUnits="userSpaceOnUse">
				<stop  offset="0" style="stop-color:#D8AD27"/>
				<stop  offset="1" style="stop-color:#8C7019"/>
			</radialGradient>
			<path fill="url(#SVGID_31_)" d="M47.329,101.875c-0.311,2.481-0.471,5.001-0.471,7.563c0,2.562,0.16,5.082,0.471,7.562
				l60.55-7.562L47.329,101.875z M59.224,72.615c-3.041,4.001-5.592,8.403-7.583,13.095l56.238,23.728L59.224,72.615z
				 M51.641,133.166c1.991,4.701,4.542,9.094,7.583,13.096l48.655-36.824L51.641,133.166z M71.058,158.095
				c4.001,3.041,8.392,5.59,13.094,7.582l23.728-56.23L71.058,158.095z M84.161,53.209c-4.702,1.981-9.103,4.542-13.104,7.583
				l36.821,48.646L84.161,53.209z M107.879,109.447l-7.563,60.541c2.48,0.311,5.002,0.471,7.563,0.471
				c2.562,0,5.082-0.16,7.563-0.471L107.879,109.447z M107.879,109.447l23.728,56.23c4.701-1.992,9.094-4.541,13.095-7.582
				L107.879,109.447z M107.879,109.438l48.646,36.833c3.041-4.012,5.603-8.414,7.583-13.115L107.879,109.438z M168.419,101.875
				l-60.54,7.563l60.54,7.572c0.31-2.48,0.471-5.01,0.471-7.572C168.89,106.876,168.729,104.356,168.419,101.875z"/>
			<radialGradient id="SVGID_32_" cx="108.5649" cy="109.0005" r="60.3983" gradientUnits="userSpaceOnUse">
				<stop  offset="0" style="stop-color:#D8AD27"/>
				<stop  offset="1" style="stop-color:#8C7019"/>
			</radialGradient>
			<path fill="url(#SVGID_32_)" d="M164.107,85.72l-56.229,23.718l48.646-36.832C159.565,76.616,162.127,81.019,164.107,85.72z"/>
			<radialGradient id="SVGID_33_" cx="108.5645" cy="109.001" r="60.3982" gradientUnits="userSpaceOnUse">
				<stop  offset="0" style="stop-color:#D8AD27"/>
				<stop  offset="1" style="stop-color:#8C7019"/>
			</radialGradient>
			<path fill="url(#SVGID_33_)" d="M144.701,60.792l-36.822,48.646l23.718-56.229C136.298,55.19,140.7,57.751,144.701,60.792z"/>
		</g>
		<linearGradient id="SVGID_34_" gradientUnits="userSpaceOnUse" x1="62.2764" y1="67.918" x2="149.0478" y2="154.6894">
			<stop  offset="0" style="stop-color:#FE1A0E"/>
			<stop  offset="1" style="stop-color:#980008"/>
		</linearGradient>
		<polygon fill="url(#SVGID_34_)" points="107.874,49.761 125.411,85.296 164.628,90.995 136.251,118.656 142.95,157.714
			107.874,139.273 72.798,157.714 79.497,118.656 51.118,90.995 90.335,85.296 		"/>
		<g>
			<radialGradient id="SVGID_35_" cx="107.6978" cy="109.415" r="60.0537" gradientUnits="userSpaceOnUse">
				<stop  offset="0" style="stop-color:#FE000D"/>
				<stop  offset="1" style="stop-color:#980008"/>
			</radialGradient>
			<polygon fill="url(#SVGID_35_)" points="161.589,91.985 134.729,118.166 107.878,109.436 			"/>
			<radialGradient id="SVGID_36_" cx="107.6978" cy="109.4155" r="60.0538" gradientUnits="userSpaceOnUse">
				<stop  offset="0" style="stop-color:#FE000D"/>
				<stop  offset="1" style="stop-color:#980008"/>
			</radialGradient>
			<polygon fill="url(#SVGID_36_)" points="134.729,118.166 141.069,155.126 107.878,109.436 			"/>
			<radialGradient id="SVGID_37_" cx="107.6978" cy="109.4155" r="60.0533" gradientUnits="userSpaceOnUse">
				<stop  offset="0" style="stop-color:#FE000D"/>
				<stop  offset="1" style="stop-color:#980008"/>
			</radialGradient>
			<polygon fill="url(#SVGID_37_)" points="107.868,109.445 107.868,137.675 74.669,155.126 107.858,109.445 			"/>
			<radialGradient id="SVGID_38_" cx="107.6987" cy="109.415" r="60.0553" gradientUnits="userSpaceOnUse">
				<stop  offset="0" style="stop-color:#FE000D"/>
				<stop  offset="1" style="stop-color:#980008"/>
			</radialGradient>
			<polygon fill="url(#SVGID_38_)" points="107.868,109.436 107.858,109.445 81.019,118.166 54.159,91.985 			"/>
			<radialGradient id="SVGID_39_" cx="107.6982" cy="109.415" r="60.0521" gradientUnits="userSpaceOnUse">
				<stop  offset="0" style="stop-color:#FE000D"/>
				<stop  offset="1" style="stop-color:#980008"/>
			</radialGradient>
			<polygon fill="url(#SVGID_39_)" points="107.868,52.956 124.468,86.585 107.868,109.436 			"/>
			<radialGradient id="SVGID_40_" cx="107.6987" cy="109.6655" r="61.0631" gradientUnits="userSpaceOnUse">
				<stop  offset="0" style="stop-color:#FE1A0E"/>
				<stop  offset="1" style="stop-color:#CB000A"/>
			</radialGradient>
			<polygon fill="url(#SVGID_40_)" points="107.878,109.436 141.069,155.126 107.868,137.675 107.868,109.445 107.868,109.436
				"/>
			<radialGradient id="SVGID_41_" cx="107.6987" cy="109.6655" r="61.0633" gradientUnits="userSpaceOnUse">
				<stop  offset="0" style="stop-color:#FE1A0E"/>
				<stop  offset="1" style="stop-color:#CB000A"/>
			</radialGradient>
			<polygon fill="url(#SVGID_41_)" points="107.858,109.445 74.669,155.126 81.019,118.166 			"/>
			<radialGradient id="SVGID_42_" cx="107.6987" cy="109.666" r="61.0625" gradientUnits="userSpaceOnUse">
				<stop  offset="0" style="stop-color:#FE1A0E"/>
				<stop  offset="1" style="stop-color:#CB000A"/>
			</radialGradient>
			<polygon fill="url(#SVGID_42_)" points="161.589,91.985 107.878,109.436 107.868,109.436 124.468,86.585 			"/>
			<radialGradient id="SVGID_43_" cx="107.6987" cy="109.666" r="61.084" gradientUnits="userSpaceOnUse">
				<stop  offset="0" style="stop-color:#FE1A0E"/>
				<stop  offset="1" style="stop-color:#CB000A"/>
			</radialGradient>
			<polygon fill="url(#SVGID_43_)" points="91.269,86.585 107.868,109.436 54.159,91.985 			"/>
			<radialGradient id="SVGID_44_" cx="107.6982" cy="109.665" r="60.9781" gradientUnits="userSpaceOnUse">
				<stop  offset="0" style="stop-color:#FE1A0E"/>
				<stop  offset="1" style="stop-color:#CB000A"/>
			</radialGradient>
			<polygon fill="url(#SVGID_44_)" points="107.868,52.956 107.868,109.436 91.269,86.585 			"/>
		</g>
		<g>
			<g>
				<linearGradient id="SVGID_45_" gradientUnits="userSpaceOnUse" x1="115.6865" y1="88.5088" x2="129.2516" y2="102.0738">
					<stop  offset="0" style="stop-color:#FFD600"/>
					<stop  offset="1" style="stop-color:#FECC2E"/>
				</linearGradient>
				<polygon fill="url(#SVGID_45_)" points="144.013,80.335 142.013,82.335 141.733,82.615 141.733,85.845 139.023,85.845
					138.233,86.636 138.233,89.355 135.513,89.355 134.724,90.146 134.724,92.855 132.003,92.855 131.213,93.655 131.213,96.365
					128.493,96.365 127.703,97.155 127.703,99.876 124.993,99.876 124.193,100.665 124.193,103.386 121.483,103.386
					120.693,104.175 120.693,106.886 117.974,106.886 117.184,107.686 117.184,110.396 114.463,110.396 113.673,111.185
					113.673,113.906 110.953,113.906 110.163,114.695 110.163,117.416 107.453,117.416 106.153,118.707 99.703,112.265
					97.833,110.396 99.144,109.105 99.144,106.386 101.843,106.386 102.644,105.585 102.644,102.876 105.354,102.876
					106.153,102.085 106.153,99.376 108.863,99.376 109.663,98.585 109.663,95.865 112.373,95.865 113.173,95.075 113.173,92.355
					115.873,92.355 116.684,91.565 116.673,88.845 119.383,88.845 120.184,88.046 120.184,85.335 122.894,85.335 123.693,84.546
					123.693,81.835 126.403,81.835 127.203,81.046 127.203,78.325 129.903,78.325 130.713,77.535 130.713,74.815 133.934,74.815
					136.224,72.535 138.503,74.815 141.733,74.815 141.733,78.035 				"/>
				<path opacity="0.5" fill="#FFFFFF" d="M144.013,80.335l-2,2c-1.529,0.471-1.93-0.22-2.96-1.24
					c-5.56-5.56-33.1,25.25-39.35,31.17l-1.87-1.87l1.311-1.29v-2.72h2.699l0.801-0.801v-2.709h2.71l0.8-0.791v-2.709h2.71
					l0.8-0.791v-2.72h2.71l0.8-0.79v-2.72h2.7l0.811-0.79l-0.011-2.721h2.71l0.801-0.799v-2.711h2.71l0.8-0.789v-2.711h2.71
					l0.8-0.789v-2.721h2.7l0.81-0.79v-2.72h3.221l2.29-2.28l2.279,2.28h3.23v3.22L144.013,80.335z"/>
				<linearGradient id="SVGID_46_" gradientUnits="userSpaceOnUse" x1="116.2666" y1="88.9351" x2="127.4292" y2="100.0976">
					<stop  offset="0" style="stop-color:#FECC2E"/>
					<stop  offset="1" style="stop-color:#B28F20"/>
				</linearGradient>
				<path fill="url(#SVGID_46_)" d="M142.235,77.833v-3.52h-3.53l-2.49-2.49l-2.49,2.49h-3.52v3.01l-0.5,0.5h-3.01v3.01l-0.5,0.5h-3
					v3l-0.5,0.5h-3.011v3.01l-0.5,0.5h-3.01v3.012l-0.5,0.5h-3.01v3.01l-0.5,0.5h-3.01l0.01,3.01l-0.51,0.5h-3v3l-0.5,0.5h-3.01
					v3.01l-0.5,0.5h-3.011v3.01l-1.5,1.5l0.69,0.69l0.72-0.69l0.8-0.801l0.29-0.289v-2.42h2.42l0.301-0.291l0.5-0.5l0.29-0.299
					v-2.42h2.42l0.79-0.791l0.3-0.289v-2.42h2.42l0.29-0.301l0.5-0.5l0.3-0.289v-0.42l-0.01-2h2.43l0.79-0.791l0.29-0.299v-2.42
					h2.42l0.3-0.291l0.5-0.5l0.29-0.301v-2.42h2.42l0.301-0.289l0.5-0.5l0.289-0.301v-2.42h2.421l0.79-0.789l0.3-0.291v-2.42h2.42
					l0.29-0.289l0.5-0.51l0.29-0.291v-2.42h2.42l0.3-0.289l0.5-0.5l0.29-0.301v-2.42h2.94l0.289-0.289l1.78-1.781l1.79,1.781
					l0.29,0.289h2.94v2.939l0.29,0.291l1.779,1.789l-1.779,1.781l-0.29,0.289v2.939h-2.42l-0.301,0.291l-0.5,0.5l-0.29,0.299v2.422
					h-2.42l-0.29,0.289l-0.51,0.5l-0.29,0.289v2.422h-2.42l-0.29,0.299l-0.5,0.5l-0.3,0.291v2.42h-2.42l-0.29,0.299l-0.79,0.791
					v2.42h-2.42l-0.3,0.289l-0.5,0.5l-0.29,0.301v2.42h-2.42l-0.29,0.289l-0.511,0.5l-0.29,0.291v2.42h-2.42l-0.29,0.299l-0.5,0.5
					l-0.3,0.291v2.42h-2.42l-0.29,0.289l-0.5,0.512l-0.29,0.289v2.42h-2.42l-0.3,0.291l-0.5,0.5l-0.29,0.299v2.42h-2.42l-1.09,1.09
					l-0.738,0.672l0.738,0.738l1.5-1.5h3.01v-3.01l0.5-0.5h3.01v-3.01l0.5-0.5h3v-3l0.51-0.51h3v-3l0.5-0.5h3.011v-3.01l0.5-0.5
					h3.01v-3.01l0.5-0.5h3v-3l0.5-0.51h3.01v-3l0.5-0.5h3.01v-3.012l0.5-0.5h3.011v-3.52l2.489-2.49L142.235,77.833z"/>
			</g>
			<g>
				<g>
					<linearGradient id="SVGID_47_" gradientUnits="userSpaceOnUse" x1="71.814" y1="118.646" x2="92.8115" y2="139.6435">
						<stop  offset="0" style="stop-color:#FFD600"/>
						<stop  offset="1" style="stop-color:#FECC2E"/>
					</linearGradient>
					<path fill="url(#SVGID_47_)" d="M106.803,119.765l-8.77-8.77l-2.25-2.25c-1.42-1.41-3.9-1.41-5.31,0l-1.11,1.08
						c-0.78,0.651-2.09,0.79-3.08,0.42l-4.7-1.77c-0.71-0.26-1.859-0.01-2.39,0.52l-14.53,14.53c-0.24,0.24-0.37,0.561-0.37,0.9
						s0.13,0.66,0.37,0.9c0.48,0.48,1.32,0.48,1.8,0l11.53-11.529c0.42-0.42,1-0.66,1.6-0.66c0.61,0,1.181,0.24,1.61,0.66l0.5,0.5
						c0.43,0.43,0.66,1,0.66,1.609s-0.23,1.18-0.66,1.609l-5.76,5.76c-1.46,1.461-1.47,3.84,0,5.311
						c0.43,0.43,0.62,1.939-0.061,3.34c-0.01,0.031-0.029,0.051-0.04,0.08l-6.279,12.24c-1.15,2.23-0.66,5.359,1.12,7.141l1.5,1.5
						c0.909,0.91,2.119,1.41,3.399,1.41c1.29,0,2.5-0.5,3.41-1.41l27.81-27.811c0.71-0.711,1.091-1.65,1.091-2.65
						C107.894,121.416,107.503,120.476,106.803,119.765z M86.213,142.066l-9.02,9.02c-0.431,0.43-1,0.67-1.61,0.67
						c-0.6,0-1.17-0.24-1.6-0.67l-1.51-1.5c-0.98-0.99-1.29-2.939-0.65-4.18l5.67-11.041c0.13-0.25,0.26-0.43,0.42-0.59
						c0.86-0.859,2.36-0.859,3.22,0l5.58,5.58C87.303,139.945,87.063,141.216,86.213,142.066z"/>
					<path opacity="0.5" fill="#FFFFFF" d="M95.783,108.745c-1.42-1.41-3.9-1.41-5.31,0l-1.11,1.08c-0.78,0.651-2.09,0.79-3.08,0.42
						l-4.7-1.77c-0.71-0.26-1.859-0.01-2.39,0.52l-14.53,14.53c-0.24,0.24-0.37,0.561-0.37,0.9s0.13,0.66,0.37,0.9
						c0.48,0.48,1.32,0.48,1.8,0l11.53-11.529c0.42-0.42,1-0.66,1.6-0.66c0.61,0,1.181,0.24,1.61,0.66l0.5,0.5
						c0.43,0.43,0.66,1,0.66,1.609s-0.23,1.18-0.66,1.609l-5.76,5.76c-1.46,1.461-1.47,3.84,0,5.311
						c0.43,0.43,0.62,1.939-0.061,3.34c4.261-1.369,8.17-3.189,9.32-5.48c2.19-4.398,7.79-12.189,12.83-15.449L95.783,108.745z"/>
					<linearGradient id="SVGID_48_" gradientUnits="userSpaceOnUse" x1="70.4355" y1="117.2695" x2="92.5377" y2="139.3717">
						<stop  offset="0" style="stop-color:#FECC2E"/>
						<stop  offset="1" style="stop-color:#B28F20"/>
					</linearGradient>
					<path fill="url(#SVGID_48_)" d="M93.128,108.149c0.871,0,1.687,0.336,2.297,0.947l1.004,1.004l0.5,0.5l9.521,9.521
						c0.61,0.611,0.948,1.428,0.948,2.299c0,0.873-0.337,1.689-0.948,2.301l-27.811,27.811c-0.813,0.814-1.897,1.262-3.052,1.262
						s-2.238-0.447-3.051-1.262l-1.504-1.504c-1.602-1.6-2.063-4.541-1.028-6.557l6.285-12.236c0.802-1.563,0.646-3.365,0.004-4.008
						c-1.267-1.268-1.267-3.33,0.003-4.598l5.76-5.764c0.522-0.521,0.811-1.219,0.811-1.961c0-0.74-0.288-1.438-0.811-1.959
						l-0.5-0.5c-0.521-0.523-1.218-0.811-1.959-0.811c-0.742,0-1.438,0.287-1.961,0.811L66.11,124.972
						c-0.145,0.145-0.338,0.223-0.545,0.223c-0.208,0-0.401-0.078-0.546-0.223s-0.225-0.34-0.225-0.547s0.079-0.4,0.224-0.545
						l14.532-14.534c0.284-0.283,0.837-0.482,1.343-0.482c0.193,0,0.369,0.027,0.511,0.082l4.7,1.764
						c0.418,0.156,0.893,0.238,1.369,0.238c0.918,0,1.746-0.287,2.288-0.79l0.021-0.016l0.051-0.051l0.993-0.994
						C91.438,108.487,92.255,108.149,93.128,108.149 M77.027,134.175l-5.65,11.004c-0.737,1.436-0.396,3.613,0.747,4.758
						l1.504,1.504c0.522,0.521,1.218,0.811,1.958,0.811c0.741,0,1.437-0.289,1.96-0.813l9.019-9.02
						c1.063-1.061,1.294-2.625,0.503-3.418l-5.584-5.584c-0.523-0.523-1.219-0.811-1.959-0.811s-1.437,0.289-1.964,0.816
						c-0.195,0.195-0.356,0.416-0.468,0.627l-0.057,0.104L77.027,134.175 M93.128,107.149c-1.091,0-2.182,0.414-3.009,1.242
						l-0.993,0.994c-0.004,0.002-0.008,0.004-0.01,0.006c-0.359,0.359-0.992,0.557-1.643,0.557c-0.348,0-0.7-0.057-1.019-0.176
						l-4.699-1.764c-0.263-0.098-0.558-0.145-0.862-0.145c-0.753,0-1.56,0.285-2.05,0.775l-14.532,14.534
						c-0.689,0.689-0.688,1.816,0.001,2.506c0.345,0.344,0.798,0.516,1.253,0.516c0.453,0,0.907-0.172,1.252-0.516l11.525-11.525
						c0.345-0.346,0.799-0.518,1.254-0.518c0.453,0,0.907,0.172,1.252,0.518l0.5,0.5c0.689,0.689,0.689,1.816,0,2.506l-5.761,5.764
						c-1.653,1.652-1.655,4.359-0.002,6.012l0.001,0.002c0.245,0.244,0.48,1.541-0.188,2.842l-6.285,12.236
						c-1.237,2.412-0.707,5.805,1.211,7.721l1.504,1.504c1.035,1.035,2.396,1.555,3.758,1.555s2.723-0.518,3.759-1.555
						l27.811-27.811c1.655-1.654,1.653-4.361,0-6.014l-9.521-9.522l-0.5-0.5l-1.004-1.004
						C95.306,107.563,94.216,107.149,93.128,107.149L93.128,107.149z M75.586,151.251c-0.453,0-0.906-0.174-1.251-0.518
						l-1.504-1.504c-0.832-0.834-1.103-2.547-0.564-3.596l5.672-11.045c0.008-0.02,0.018-0.035,0.026-0.051
						c0.078-0.148,0.181-0.285,0.306-0.412c0.347-0.346,0.801-0.52,1.254-0.52s0.906,0.172,1.252,0.518l5.584,5.584
						c0.348,0.35,0.205,1.299-0.502,2.004l-9.02,9.02C76.493,151.078,76.04,151.251,75.586,151.251L75.586,151.251z"/>
				</g>
			</g>
		</g>
		<g>
			<g>
				<linearGradient id="SVGID_49_" gradientUnits="userSpaceOnUse" x1="123.1235" y1="114.7212" x2="117.1387" y2="120.706">
					<stop  offset="0" style="stop-color:#FFD600"/>
					<stop  offset="1" style="stop-color:#FECC2E"/>
				</linearGradient>
				<path fill="url(#SVGID_49_)" d="M151.493,145.816l-8.26,8.26c-0.311,0.311-0.681,0.26-0.9-0.131l-11.64-20.58
					c-0.44-0.789-1.46-1.629-2.311-1.908l-1.819-0.611c-0.65-0.209-1.57-0.85-2-1.379l-2.28-2.861l-3.89-4.869
					c-0.41-0.52-1.11-1.311-1.681-1.91c0.96-1.301,0.851-3.16-0.33-4.34l-7.01-7.01l-17.04-17.051c-0.75-0.739-1.3-1.58-1.56-2.359
					c-0.221-0.65-0.2-1.17,0.069-1.439l1.65-1.74l25.13,25.081l1-1.021c0.351-0.34,0.96-0.34,1.3,0l2.59,2.601l0.41,0.41
					c0.53,0.529,1.261,1.5,1.601,2.139l4.66,8.52c0.42,0.801,1.399,1.691,2.22,2.031l0.899,0.389c0.66,0.281,1.65,0.951,2.15,1.451
					l1.81,1.811l15.23,15.229C151.854,144.886,151.854,145.466,151.493,145.816z"/>
				<path opacity="0.5" fill="#FFFFFF" d="M136.263,129.296c-0.01,0-0.029-0.012-0.039-0.012c-5.29-1.76-9.471-2.439-13.94-2.68
					l-3.89-4.869c-0.41-0.52-1.11-1.311-1.681-1.91c0.96-1.301,0.851-3.16-0.33-4.34l-7.01-7.01c4.29,1.56,8.65,3.12,13.14,4.071
					l0.41,0.41c0.53,0.529,1.261,1.5,1.601,2.139l4.66,8.52c0.42,0.801,1.399,1.691,2.22,2.031l0.899,0.389
					c0.66,0.281,1.65,0.951,2.15,1.451L136.263,129.296z"/>
				<linearGradient id="SVGID_50_" gradientUnits="userSpaceOnUse" x1="124.0439" y1="113.7925" x2="118.0232" y2="119.8133">
					<stop  offset="0" style="stop-color:#FECC2E"/>
					<stop  offset="1" style="stop-color:#B28F20"/>
				</linearGradient>
				<path fill="url(#SVGID_50_)" d="M92.501,86.601l24.412,24.358l0.709,0.707l0.705-0.707l0.652-0.655
					c0.105-0.105,0.23-0.121,0.295-0.121s0.189,0.016,0.294,0.121l3.007,3.006c0.48,0.482,1.186,1.426,1.51,2.02l4.656,8.533
					c0.479,0.883,1.539,1.848,2.466,2.244l0.904,0.389c0.599,0.256,1.529,0.885,1.99,1.348l17.037,17.035
					c0.16,0.16,0.16,0.432,0,0.592l-8.251,8.252c-0.036,0.035-0.064,0.051-0.063,0.059c-0.012-0.01-0.035-0.033-0.059-0.076
					l-11.635-20.584c-0.505-0.895-1.622-1.814-2.596-2.137l-1.822-0.609c-0.557-0.184-1.396-0.77-1.762-1.229l-6.168-7.727
					c-0.37-0.463-0.937-1.109-1.437-1.646c0.337-0.578,0.517-1.238,0.517-1.924c0.001-1.025-0.398-1.988-1.123-2.713l-1.297-1.297
					h0.001l-0.707-0.707l-22.05-22.051c-1.508-1.508-1.707-2.891-1.484-3.113L92.501,86.601 M92.48,85.169l-2.002,2.111
					c-0.831,0.832-0.156,2.848,1.503,4.508l22.05,22.051h-0.001l2.004,2.004c1.108,1.107,1.106,2.902,0,4.008l0.081,0.082
					c0.552,0.551,1.4,1.5,1.887,2.109l6.168,7.727c0.486,0.609,1.488,1.309,2.229,1.555l1.819,0.607
					c0.74,0.246,1.66,1.004,2.043,1.682l11.634,20.584c0.218,0.385,0.559,0.586,0.914,0.586c0.27,0,0.547-0.117,0.785-0.355
					l8.251-8.25c0.551-0.551,0.553-1.453,0-2.006l-17.037-17.035c-0.551-0.553-1.589-1.254-2.305-1.561l-0.902-0.387
					c-0.717-0.309-1.609-1.117-1.982-1.803l-4.656-8.535c-0.373-0.686-1.13-1.695-1.681-2.248l-3.007-3.006
					c-0.275-0.275-0.638-0.414-1.001-0.414s-0.727,0.139-1.002,0.414l-0.652,0.654L92.48,85.169L92.48,85.169z"/>
			</g>
			<g>
				<linearGradient id="SVGID_51_" gradientUnits="userSpaceOnUse" x1="96.6934" y1="88.0767" x2="95.2585" y2="89.5115">
					<stop  offset="0" style="stop-color:#FFD600"/>
					<stop  offset="1" style="stop-color:#FECC2E"/>
				</linearGradient>
				<path fill="url(#SVGID_51_)" d="M119.923,111.246l-1.739,1.74c-0.341,0.35-0.95,0.34-1.301-0.01L86.983,83.075l-15.19-15.189
					c-0.17-0.18-0.27-0.41-0.27-0.66c0-0.24,0.1-0.471,0.27-0.641l1.73-1.74c0.17-0.17,0.399-0.26,0.649-0.26s0.48,0.09,0.65,0.26
					l29.97,29.971l15.13,15.13C120.283,110.296,120.283,110.896,119.923,111.246z"/>
				<path opacity="0.5" fill="#FFFFFF" d="M104.793,94.815c-4.3-2.12-11.819-8.35-17.81-11.74l-15.19-15.189
					c-0.17-0.18-0.27-0.41-0.27-0.66c0-0.24,0.1-0.471,0.27-0.641l1.73-1.74c0.17-0.17,0.399-0.26,0.649-0.26s0.48,0.09,0.65,0.26
					L104.793,94.815z"/>
				<linearGradient id="SVGID_52_" gradientUnits="userSpaceOnUse" x1="97.3882" y1="87.3862" x2="94.1659" y2="90.6085">
					<stop  offset="0" style="stop-color:#FECC2E"/>
					<stop  offset="1" style="stop-color:#B28F20"/>
				</linearGradient>
				<path fill="url(#SVGID_52_)" d="M74.174,65.085c0.065,0,0.19,0.016,0.296,0.119l45.099,45.1
					c0.104,0.106,0.121,0.231,0.121,0.297c0,0.064-0.016,0.189-0.12,0.293l-1.736,1.736c-0.105,0.105-0.229,0.121-0.295,0.121
					c-0.064,0-0.19-0.016-0.296-0.121l-45.099-45.1c-0.16-0.16-0.16-0.432-0.001-0.59l1.736-1.736
					C73.983,65.101,74.108,65.085,74.174,65.085 M74.174,64.085c-0.363,0-0.726,0.137-1.002,0.412l-1.736,1.736
					c-0.551,0.551-0.55,1.453,0.002,2.004l45.098,45.1c0.275,0.275,0.64,0.414,1.003,0.414s0.727-0.139,1.002-0.414l1.736-1.736
					c0.552-0.551,0.55-1.454-0.001-2.004l-45.099-45.1C74.901,64.222,74.537,64.085,74.174,64.085L74.174,64.085z"/>
			</g>
		</g>
	</g>
	<linearGradient id="SVGID_53_" gradientUnits="userSpaceOnUse" x1="551.4487" y1="63.0728" x2="551.4487" y2="148.4059">
		<stop  offset="0" style="stop-color:#FE000D"/>
		<stop  offset="1" style="stop-color:#980008"/>
	</linearGradient>
	<path fill="url(#SVGID_53_)" d="M572.126,64.613l-0.002,37.213l-20.676,41.354l-20.678-41.354V64.613H572.126 M551.449,126.773
		l1.789-3.578l11.338-22.678l0.211-0.422v-0.472v-25.67v-2h-2h-22.676h-2v2v25.67v0.472l0.211,0.422l11.338,22.678L551.449,126.773
		 M574.126,62.613h-45.355v39.686l22.678,45.355l22.676-45.355h0.002V62.613L574.126,62.613z M551.449,122.3l-11.338-22.678v-25.67
		h22.676v25.67L551.449,122.3L551.449,122.3z"/>
	<linearGradient id="SVGID_54_" gradientUnits="userSpaceOnUse" x1="608.1411" y1="63.0728" x2="608.1411" y2="148.4059">
		<stop  offset="0" style="stop-color:#FE000D"/>
		<stop  offset="1" style="stop-color:#980008"/>
	</linearGradient>
	<path fill="url(#SVGID_54_)" d="M628.818,64.613v37.213l-20.678,41.354l-20.676-41.354V64.613H628.818 M608.14,126.773l1.789-3.578
		l11.338-22.678l0.211-0.422v-0.472l0.002-25.67v-2h-2h-22.678h-2v2v25.67v0.472l0.211,0.422l11.338,22.678L608.14,126.773
		 M630.818,62.613h-45.354v39.686l22.676,45.355l22.678-45.355l0,0V62.613L630.818,62.613z M608.14,122.3l-11.338-22.678v-25.67
		h22.678l-0.002,25.67L608.14,122.3L608.14,122.3z"/>
	<g>
		<linearGradient id="SVGID_55_" gradientUnits="userSpaceOnUse" x1="494.7563" y1="63.0728" x2="494.7563" y2="148.4059">
			<stop  offset="0" style="stop-color:#FE000D"/>
			<stop  offset="1" style="stop-color:#980008"/>
		</linearGradient>
		<path fill="url(#SVGID_55_)" d="M515.433,64.613v37.213l-20.678,41.354l-20.676-41.354V64.613h7.338v35.009v0.472l0.211,0.422
			l11.338,22.678l1.789,3.578l1.789-3.578l11.338-22.678l0.211-0.422v-0.472l0.002-35.009H515.433 M517.433,62.613h-11.338
			l-0.002,37.009L494.755,122.3l-11.338-22.678V62.613H472.08v39.686l22.676,45.355l22.678-45.355l0,0V62.613L517.433,62.613z"/>
	</g>
	<linearGradient id="SVGID_56_" gradientUnits="userSpaceOnUse" x1="438.063" y1="63.0728" x2="438.063" y2="148.4059">
		<stop  offset="0" style="stop-color:#FE000D"/>
		<stop  offset="1" style="stop-color:#980008"/>
	</linearGradient>
	<path fill="url(#SVGID_56_)" d="M453.835,64.614l4.904,9.812v50.078l-7.338,14.677v-42.55v-2h-2h-22.678h-2v2v42.55l-7.338-14.677
		V74.426l4.904-9.812H453.835 M424.724,87.292h2h22.678h2v-2V76.63v-0.472l-0.211-0.422l-1.338-2.677l-0.553-1.106h-1.236h-20.002
		h-1.236l-0.553,1.106l-1.338,2.677l-0.211,0.422v0.472v8.662V87.292 M455.072,62.614h-34.018l-5.668,11.34v51.022l11.338,22.678
		V96.631h22.678v51.023l11.338-22.678V73.954L455.072,62.614L455.072,62.614z M426.724,85.292V76.63l1.338-2.677h20.002l1.338,2.677
		v8.662H426.724L426.724,85.292z"/>
	<g>
		<linearGradient id="SVGID_57_" gradientUnits="userSpaceOnUse" x1="381.3706" y1="63.0728" x2="381.3706" y2="148.4059">
			<stop  offset="0" style="stop-color:#FE000D"/>
			<stop  offset="1" style="stop-color:#980008"/>
		</linearGradient>
		<path fill="url(#SVGID_57_)" d="M402.048,64.613l-0.002,37.213l-20.676,41.354l-20.677-41.354V64.613h7.338l0.001,35.009v0.472
			l0.211,0.422l11.338,22.678l1.789,3.578l1.789-3.578l11.338-22.678l0.211-0.422v-0.472V64.613H402.048 M404.048,62.613h-11.34
			v37.009L381.37,122.3l-11.338-22.678l-0.001-37.009h-11.338v39.686l22.677,45.355l22.676-45.355h0.002V62.613L404.048,62.613z"/>
	</g>
	<g>
		<linearGradient id="SVGID_58_" gradientUnits="userSpaceOnUse" x1="664.8345" y1="63.0728" x2="664.8345" y2="148.4069">
			<stop  offset="0" style="stop-color:#FE000D"/>
			<stop  offset="1" style="stop-color:#980008"/>
		</linearGradient>
		<path fill="url(#SVGID_58_)" d="M685.511,64.614v59.89l-7.338,14.677V87.966v-8.473l-3.789,7.578l-9.551,19.103l-9.549-19.099
			l-3.789-7.578v8.473v51.211l-7.338-14.677v-59.89h8.102l10.785,21.572l1.789,3.578l1.789-3.578l10.785-21.572H685.511
			 M687.511,62.614h-11.338v0.001l-0.002-0.001l-11.338,22.678l-11.338-22.678h-11.338v62.362l11.338,22.678V87.97l11.338,22.676
			l11.34-22.68v59.688l11.338-22.678V62.614L687.511,62.614z"/>
	</g>
</g>
</svg>
